<svg xmlns="http://www.w3.org/2000/svg" width="256" height="256" viewBox="0 0 256 256" style="background:#0a0a0f"><rect x="104" y="24" width="8" height="8" fill="#0d9488"/><rect x="112" y="24" width="8" height="8" fill="#0d9488"/><rect x="120" y="24" width="8" height="8" fill="#0d9488"/><rect x="128" y="24" width="8" height="8" fill="#0d9488"/><rect x="136" y="24" width="8" height="8" fill="#0d9488"/><rect x="144" y="24" width="8" height="8" fill="#0d9488"/><rect x="96" y="32" width="8" height="8" fill="#0d9488"/><rect x="104" y="32" width="8" height="8" fill="#115e59"/><rect x="112" y="32" width="8" height="8" fill="#115e59"/><rect x="120" y="32" width="8" height="8" fill="#115e59"/><rect x="128" y="32" width="8" height="8" fill="#115e59"/><rect x="136" y="32" width="8" height="8" fill="#115e59"/><rect x="144" y="32" width="8" height="8" fill="#115e59"/><rect x="152" y="32" width="8" height="8" fill="#0d9488"/><rect x="88" y="40" width="8" height="8" fill="#0d9488"/><rect x="96" y="40" width="8" height="8" fill="#115e59"/><rect x="104" y="40" width="8" height="8" fill="#115e59"/><rect x="112" y="40" width="8" height="8" fill="#115e59"/><rect x="120" y="40" width="8" height="8" fill="#115e59"/><rect x="128" y="40" width="8" height="8" fill="#115e59"/><rect x="136" y="40" width="8" height="8" fill="#115e59"/><rect x="144" y="40" width="8" height="8" fill="#115e59"/><rect x="152" y="40" width="8" height="8" fill="#115e59"/><rect x="160" y="40" width="8" height="8" fill="#0d9488"/><rect x="120" y="40" width="8" height="8" fill="#06b6d4"/><rect x="128" y="40" width="8" height="8" fill="#06b6d4"/><rect x="88" y="48" width="8" height="8" fill="#0d9488"/><rect x="96" y="48" width="8" height="8" fill="#1e3a5f"/><rect x="104" y="48" width="8" height="8" fill="#1e3a5f"/><rect x="112" y="48" width="8" height="8" fill="#1e3a5f"/><rect x="120" y="48" width="8" height="8" fill="#1e3a5f"/><rect x="128" y="48" width="8" height="8" fill="#1e3a5f"/><rect x="136" y="48" width="8" height="8" fill="#1e3a5f"/><rect x="144" y="48" width="8" height="8" fill="#1e3a5f"/><rect x="152" y="48" width="8" height="8" fill="#1e3a5f"/><rect x="160" y="48" width="8" height="8" fill="#0d9488"/><rect x="88" y="56" width="8" height="8" fill="#0d9488"/><rect x="96" y="56" width="8" height="8" fill="#1e3a5f"/><rect x="104" y="56" width="8" height="8" fill="#06b6d4"/><rect x="112" y="56" width="8" height="8" fill="#1e3a5f"/><rect x="120" y="56" width="8" height="8" fill="#1e3a5f"/><rect x="128" y="56" width="8" height="8" fill="#1e3a5f"/><rect x="136" y="56" width="8" height="8" fill="#06b6d4"/><rect x="144" y="56" width="8" height="8" fill="#1e3a5f"/><rect x="152" y="56" width="8" height="8" fill="#1e3a5f"/><rect x="160" y="56" width="8" height="8" fill="#0d9488"/><rect x="88" y="64" width="8" height="8" fill="#0d9488"/><rect x="96" y="64" width="8" height="8" fill="#1e3a5f"/><rect x="104" y="64" width="8" height="8" fill="#1e3a5f"/><rect x="112" y="64" width="8" height="8" fill="#1e3a5f"/><rect x="120" y="64" width="8" height="8" fill="#1e3a5f"/><rect x="128" y="64" width="8" height="8" fill="#1e3a5f"/><rect x="136" y="64" width="8" height="8" fill="#1e3a5f"/><rect x="144" y="64" width="8" height="8" fill="#1e3a5f"/><rect x="152" y="64" width="8" height="8" fill="#1e3a5f"/><rect x="160" y="64" width="8" height="8" fill="#0d9488"/><rect x="96" y="72" width="8" height="8" fill="#0d9488"/><rect x="104" y="72" width="8" height="8" fill="#1e3a5f"/><rect x="112" y="72" width="8" height="8" fill="#1e3a5f"/><rect x="120" y="72" width="8" height="8" fill="#134e6f"/><rect x="128" y="72" width="8" height="8" fill="#134e6f"/><rect x="136" y="72" width="8" height="8" fill="#1e3a5f"/><rect x="144" y="72" width="8" height="8" fill="#1e3a5f"/><rect x="152" y="72" width="8" height="8" fill="#0d9488"/><rect x="80" y="48" width="8" height="8" fill="#0d9488"/><rect x="168" y="48" width="8" height="8" fill="#0d9488"/><rect x="80" y="56" width="8" height="8" fill="#0d9488"/><rect x="168" y="56" width="8" height="8" fill="#0d9488"/><rect x="80" y="64" width="8" height="8" fill="#0d9488"/><rect x="168" y="64" width="8" height="8" fill="#0d9488"/><rect x="112" y="80" width="8" height="8" fill="#1e3a5f"/><rect x="120" y="80" width="8" height="8" fill="#1e3a5f"/><rect x="128" y="80" width="8" height="8" fill="#1e3a5f"/><rect x="136" y="80" width="8" height="8" fill="#1e3a5f"/><rect x="64" y="88" width="8" height="8" fill="#0d9488"/><rect x="72" y="88" width="8" height="8" fill="#0d9488"/><rect x="80" y="88" width="8" height="8" fill="#0d9488"/><rect x="88" y="88" width="8" height="8" fill="#0d9488"/><rect x="96" y="88" width="8" height="8" fill="#0d9488"/><rect x="104" y="88" width="8" height="8" fill="#0d9488"/><rect x="112" y="88" width="8" height="8" fill="#0d9488"/><rect x="120" y="88" width="8" height="8" fill="#0d9488"/><rect x="128" y="88" width="8" height="8" fill="#0d9488"/><rect x="136" y="88" width="8" height="8" fill="#0d9488"/><rect x="144" y="88" width="8" height="8" fill="#0d9488"/><rect x="152" y="88" width="8" height="8" fill="#0d9488"/><rect x="160" y="88" width="8" height="8" fill="#0d9488"/><rect x="168" y="88" width="8" height="8" fill="#0d9488"/><rect x="176" y="88" width="8" height="8" fill="#0d9488"/><rect x="184" y="88" width="8" height="8" fill="#0d9488"/><rect x="104" y="128" width="8" height="8" fill="#06b6d4"/><rect x="112" y="128" width="8" height="8" fill="#67e8f9"/><rect x="120" y="128" width="8" height="8" fill="#67e8f9"/><rect x="128" y="128" width="8" height="8" fill="#67e8f9"/><rect x="136" y="128" width="8" height="8" fill="#06b6d4"/><rect x="96" y="136" width="8" height="8" fill="#06b6d4"/><rect x="104" y="136" width="8" height="8" fill="#67e8f9"/><rect x="112" y="136" width="8" height="8" fill="#a5f3fc"/><rect x="120" y="136" width="8" height="8" fill="#cffafe"/><rect x="128" y="136" width="8" height="8" fill="#67e8f9"/><rect x="136" y="136" width="8" height="8" fill="#67e8f9"/><rect x="144" y="136" width="8" height="8" fill="#06b6d4"/><rect x="96" y="144" width="8" height="8" fill="#06b6d4"/><rect x="104" y="144" width="8" height="8" fill="#67e8f9"/><rect x="112" y="144" width="8" height="8" fill="#67e8f9"/><rect x="120" y="144" width="8" height="8" fill="#a5f3fc"/><rect x="128" y="144" width="8" height="8" fill="#67e8f9"/><rect x="136" y="144" width="8" height="8" fill="#67e8f9"/><rect x="144" y="144" width="8" height="8" fill="#06b6d4"/><rect x="104" y="152" width="8" height="8" fill="#06b6d4"/><rect x="112" y="152" width="8" height="8" fill="#67e8f9"/><rect x="120" y="152" width="8" height="8" fill="#67e8f9"/><rect x="128" y="152" width="8" height="8" fill="#67e8f9"/><rect x="136" y="152" width="8" height="8" fill="#06b6d4"/><rect x="88" y="128" width="8" height="8" fill="#1e3a5f"/><rect x="88" y="136" width="8" height="8" fill="#1e3a5f"/><rect x="88" y="144" width="8" height="8" fill="#1e3a5f"/><rect x="152" y="128" width="8" height="8" fill="#1e3a5f"/><rect x="152" y="136" width="8" height="8" fill="#1e3a5f"/><rect x="152" y="144" width="8" height="8" fill="#1e3a5f"/></svg>