<svg xmlns="http://www.w3.org/2000/svg" width="256" height="256" viewBox="0 0 256 256" style="background:#0a0a0f"><rect x="120" y="8" width="8" height="8" fill="#581c87"/><rect x="128" y="8" width="8" height="8" fill="#581c87"/><rect x="112" y="16" width="8" height="8" fill="#581c87"/><rect x="120" y="16" width="8" height="8" fill="#0a0a0a"/><rect x="128" y="16" width="8" height="8" fill="#0a0a0a"/><rect x="136" y="16" width="8" height="8" fill="#581c87"/><rect x="96" y="24" width="8" height="8" fill="#581c87"/><rect x="104" y="24" width="8" height="8" fill="#0a0a0a"/><rect x="112" y="24" width="8" height="8" fill="#0a0a0a"/><rect x="136" y="24" width="8" height="8" fill="#0a0a0a"/><rect x="144" y="24" width="8" height="8" fill="#0a0a0a"/><rect x="152" y="24" width="8" height="8" fill="#581c87"/><rect x="88" y="40" width="8" height="8" fill="#581c87"/><rect x="96" y="40" width="8" height="8" fill="#0a0a0a"/><rect x="104" y="40" width="8" height="8" fill="#0a0a0a"/><rect x="112" y="40" width="8" height="8" fill="#0a0a0a"/><rect x="120" y="40" width="8" height="8" fill="#0a0a0a"/><rect x="128" y="40" width="8" height="8" fill="#0a0a0a"/><rect x="136" y="40" width="8" height="8" fill="#0a0a0a"/><rect x="144" y="40" width="8" height="8" fill="#0a0a0a"/><rect x="152" y="40" width="8" height="8" fill="#0a0a0a"/><rect x="160" y="40" width="8" height="8" fill="#581c87"/><rect x="80" y="48" width="8" height="8" fill="#0a0a0a"/><rect x="88" y="48" width="8" height="8" fill="#581c87"/><rect x="96" y="48" width="8" height="8" fill="#581c87"/><rect x="104" y="48" width="8" height="8" fill="#581c87"/><rect x="112" y="48" width="8" height="8" fill="#581c87"/><rect x="120" y="48" width="8" height="8" fill="#581c87"/><rect x="128" y="48" width="8" height="8" fill="#581c87"/><rect x="136" y="48" width="8" height="8" fill="#581c87"/><rect x="144" y="48" width="8" height="8" fill="#581c87"/><rect x="152" y="48" width="8" height="8" fill="#581c87"/><rect x="160" y="48" width="8" height="8" fill="#581c87"/><rect x="168" y="48" width="8" height="8" fill="#0a0a0a"/><rect x="72" y="56" width="8" height="8" fill="#0a0a0a"/><rect x="80" y="56" width="8" height="8" fill="#581c87"/><rect x="88" y="56" width="8" height="8" fill="#1a0a2e"/><rect x="96" y="56" width="8" height="8" fill="#1a0a2e"/><rect x="104" y="56" width="8" height="8" fill="#1a0a2e"/><rect x="112" y="56" width="8" height="8" fill="#1a0a2e"/><rect x="120" y="56" width="8" height="8" fill="#1a0a2e"/><rect x="128" y="56" width="8" height="8" fill="#1a0a2e"/><rect x="136" y="56" width="8" height="8" fill="#1a0a2e"/><rect x="144" y="56" width="8" height="8" fill="#1a0a2e"/><rect x="152" y="56" width="8" height="8" fill="#1a0a2e"/><rect x="160" y="56" width="8" height="8" fill="#1a0a2e"/><rect x="168" y="56" width="8" height="8" fill="#581c87"/><rect x="176" y="56" width="8" height="8" fill="#0a0a0a"/><rect x="64" y="64" width="8" height="8" fill="#0a0a0a"/><rect x="72" y="64" width="8" height="8" fill="#581c87"/><rect x="80" y="64" width="8" height="8" fill="#1a0a2e"/><rect x="88" y="64" width="8" height="8" fill="#1a0a2e"/><rect x="96" y="64" width="8" height="8" fill="#1a0a2e"/><rect x="104" y="64" width="8" height="8" fill="#1a0a2e"/><rect x="112" y="64" width="8" height="8" fill="#1a0a2e"/><rect x="120" y="64" width="8" height="8" fill="#1a0a2e"/><rect x="128" y="64" width="8" height="8" fill="#1a0a2e"/><rect x="136" y="64" width="8" height="8" fill="#1a0a2e"/><rect x="144" y="64" width="8" height="8" fill="#1a0a2e"/><rect x="152" y="64" width="8" height="8" fill="#1a0a2e"/><rect x="160" y="64" width="8" height="8" fill="#1a0a2e"/><rect x="168" y="64" width="8" height="8" fill="#1a0a2e"/><rect x="176" y="64" width="8" height="8" fill="#581c87"/><rect x="184" y="64" width="8" height="8" fill="#0a0a0a"/><rect x="64" y="72" width="8" height="8" fill="#0a0a0a"/><rect x="72" y="72" width="8" height="8" fill="#1a0a2e"/><rect x="80" y="72" width="8" height="8" fill="#1a0a2e"/><rect x="88" y="72" width="8" height="8" fill="#1a0a2e"/><rect x="96" y="72" width="8" height="8" fill="#1a0a2e"/><rect x="104" y="72" width="8" height="8" fill="#ef4444"/><rect x="112" y="72" width="8" height="8" fill="#ef4444"/><rect x="120" y="72" width="8" height="8" fill="#ef4444"/><rect x="128" y="72" width="8" height="8" fill="#ef4444"/><rect x="136" y="72" width="8" height="8" fill="#ef4444"/><rect x="144" y="72" width="8" height="8" fill="#ef4444"/><rect x="152" y="72" width="8" height="8" fill="#1a0a2e"/><rect x="160" y="72" width="8" height="8" fill="#1a0a2e"/><rect x="168" y="72" width="8" height="8" fill="#1a0a2e"/><rect x="176" y="72" width="8" height="8" fill="#1a0a2e"/><rect x="184" y="72" width="8" height="8" fill="#0a0a0a"/><rect x="64" y="80" width="8" height="8" fill="#0a0a0a"/><rect x="72" y="80" width="8" height="8" fill="#1a0a2e"/><rect x="80" y="80" width="8" height="8" fill="#1a0a2e"/><rect x="88" y="80" width="8" height="8" fill="#1a0a2e"/><rect x="96" y="80" width="8" height="8" fill="#ef4444"/><rect x="104" y="80" width="8" height="8" fill="#dc2626"/><rect x="112" y="80" width="8" height="8" fill="#dc2626"/><rect x="120" y="80" width="8" height="8" fill="#0a0a0a"/><rect x="128" y="80" width="8" height="8" fill="#0a0a0a"/><rect x="136" y="80" width="8" height="8" fill="#dc2626"/><rect x="144" y="80" width="8" height="8" fill="#dc2626"/><rect x="152" y="80" width="8" height="8" fill="#ef4444"/><rect x="160" y="80" width="8" height="8" fill="#1a0a2e"/><rect x="168" y="80" width="8" height="8" fill="#1a0a2e"/><rect x="176" y="80" width="8" height="8" fill="#1a0a2e"/><rect x="184" y="80" width="8" height="8" fill="#0a0a0a"/><rect x="64" y="88" width="8" height="8" fill="#0a0a0a"/><rect x="72" y="88" width="8" height="8" fill="#1a0a2e"/><rect x="80" y="88" width="8" height="8" fill="#1a0a2e"/><rect x="88" y="88" width="8" height="8" fill="#ef4444"/><rect x="96" y="88" width="8" height="8" fill="#dc2626"/><rect x="104" y="88" width="8" height="8" fill="#0a0a0a"/><rect x="112" y="88" width="8" height="8" fill="#0a0a0a"/><rect x="120" y="88" width="8" height="8" fill="#0a0a0a"/><rect x="128" y="88" width="8" height="8" fill="#0a0a0a"/><rect x="136" y="88" width="8" height="8" fill="#0a0a0a"/><rect x="144" y="88" width="8" height="8" fill="#0a0a0a"/><rect x="152" y="88" width="8" height="8" fill="#dc2626"/><rect x="160" y="88" width="8" height="8" fill="#ef4444"/><rect x="168" y="88" width="8" height="8" fill="#1a0a2e"/><rect x="176" y="88" width="8" height="8" fill="#1a0a2e"/><rect x="184" y="88" width="8" height="8" fill="#0a0a0a"/><rect x="64" y="96" width="8" height="8" fill="#0a0a0a"/><rect x="72" y="96" width="8" height="8" fill="#1a0a2e"/><rect x="80" y="96" width="8" height="8" fill="#1a0a2e"/><rect x="88" y="96" width="8" height="8" fill="#ef4444"/><rect x="96" y="96" width="8" height="8" fill="#dc2626"/><rect x="104" y="96" width="8" height="8" fill="#0a0a0a"/><rect x="112" y="96" width="8" height="8" fill="#0a0a0a"/><rect x="120" y="96" width="8" height="8" fill="#0a0a0a"/><rect x="128" y="96" width="8" height="8" fill="#0a0a0a"/><rect x="136" y="96" width="8" height="8" fill="#0a0a0a"/><rect x="144" y="96" width="8" height="8" fill="#0a0a0a"/><rect x="152" y="96" width="8" height="8" fill="#dc2626"/><rect x="160" y="96" width="8" height="8" fill="#ef4444"/><rect x="168" y="96" width="8" height="8" fill="#1a0a2e"/><rect x="176" y="96" width="8" height="8" fill="#1a0a2e"/><rect x="184" y="96" width="8" height="8" fill="#0a0a0a"/><rect x="64" y="104" width="8" height="8" fill="#0a0a0a"/><rect x="72" y="104" width="8" height="8" fill="#1a0a2e"/><rect x="80" y="104" width="8" height="8" fill="#1a0a2e"/><rect x="88" y="104" width="8" height="8" fill="#1a0a2e"/><rect x="96" y="104" width="8" height="8" fill="#ef4444"/><rect x="104" y="104" width="8" height="8" fill="#dc2626"/><rect x="112" y="104" width="8" height="8" fill="#dc2626"/><rect x="120" y="104" width="8" height="8" fill="#0a0a0a"/><rect x="128" y="104" width="8" height="8" fill="#0a0a0a"/><rect x="136" y="104" width="8" height="8" fill="#dc2626"/><rect x="144" y="104" width="8" height="8" fill="#dc2626"/><rect x="152" y="104" width="8" height="8" fill="#ef4444"/><rect x="160" y="104" width="8" height="8" fill="#1a0a2e"/><rect x="168" y="104" width="8" height="8" fill="#1a0a2e"/><rect x="176" y="104" width="8" height="8" fill="#1a0a2e"/><rect x="184" y="104" width="8" height="8" fill="#0a0a0a"/><rect x="64" y="112" width="8" height="8" fill="#0a0a0a"/><rect x="72" y="112" width="8" height="8" fill="#1a0a2e"/><rect x="80" y="112" width="8" height="8" fill="#1a0a2e"/><rect x="88" y="112" width="8" height="8" fill="#1a0a2e"/><rect x="96" y="112" width="8" height="8" fill="#1a0a2e"/><rect x="104" y="112" width="8" height="8" fill="#ef4444"/><rect x="112" y="112" width="8" height="8" fill="#ef4444"/><rect x="120" y="112" width="8" height="8" fill="#ef4444"/><rect x="128" y="112" width="8" height="8" fill="#ef4444"/><rect x="136" y="112" width="8" height="8" fill="#ef4444"/><rect x="144" y="112" width="8" height="8" fill="#ef4444"/><rect x="152" y="112" width="8" height="8" fill="#1a0a2e"/><rect x="160" y="112" width="8" height="8" fill="#1a0a2e"/><rect x="168" y="112" width="8" height="8" fill="#1a0a2e"/><rect x="176" y="112" width="8" height="8" fill="#1a0a2e"/><rect x="184" y="112" width="8" height="8" fill="#0a0a0a"/><rect x="64" y="120" width="8" height="8" fill="#0a0a0a"/><rect x="72" y="120" width="8" height="8" fill="#581c87"/><rect x="80" y="120" width="8" height="8" fill="#1a0a2e"/><rect x="88" y="120" width="8" height="8" fill="#1a0a2e"/><rect x="96" y="120" width="8" height="8" fill="#1a0a2e"/><rect x="104" y="120" width="8" height="8" fill="#1a0a2e"/><rect x="112" y="120" width="8" height="8" fill="#1a0a2e"/><rect x="120" y="120" width="8" height="8" fill="#1a0a2e"/><rect x="128" y="120" width="8" height="8" fill="#1a0a2e"/><rect x="136" y="120" width="8" height="8" fill="#1a0a2e"/><rect x="144" y="120" width="8" height="8" fill="#1a0a2e"/><rect x="152" y="120" width="8" height="8" fill="#1a0a2e"/><rect x="160" y="120" width="8" height="8" fill="#1a0a2e"/><rect x="168" y="120" width="8" height="8" fill="#1a0a2e"/><rect x="176" y="120" width="8" height="8" fill="#581c87"/><rect x="184" y="120" width="8" height="8" fill="#0a0a0a"/><rect x="72" y="128" width="8" height="8" fill="#0a0a0a"/><rect x="80" y="128" width="8" height="8" fill="#581c87"/><rect x="88" y="128" width="8" height="8" fill="#1a0a2e"/><rect x="96" y="128" width="8" height="8" fill="#1a0a2e"/><rect x="104" y="128" width="8" height="8" fill="#1a0a2e"/><rect x="112" y="128" width="8" height="8" fill="#1a0a2e"/><rect x="120" y="128" width="8" height="8" fill="#1a0a2e"/><rect x="128" y="128" width="8" height="8" fill="#1a0a2e"/><rect x="136" y="128" width="8" height="8" fill="#1a0a2e"/><rect x="144" y="128" width="8" height="8" fill="#1a0a2e"/><rect x="152" y="128" width="8" height="8" fill="#1a0a2e"/><rect x="160" y="128" width="8" height="8" fill="#1a0a2e"/><rect x="168" y="128" width="8" height="8" fill="#581c87"/><rect x="176" y="128" width="8" height="8" fill="#0a0a0a"/><rect x="80" y="136" width="8" height="8" fill="#0a0a0a"/><rect x="88" y="136" width="8" height="8" fill="#581c87"/><rect x="96" y="136" width="8" height="8" fill="#581c87"/><rect x="104" y="136" width="8" height="8" fill="#581c87"/><rect x="112" y="136" width="8" height="8" fill="#581c87"/><rect x="120" y="136" width="8" height="8" fill="#581c87"/><rect x="128" y="136" width="8" height="8" fill="#581c87"/><rect x="136" y="136" width="8" height="8" fill="#581c87"/><rect x="144" y="136" width="8" height="8" fill="#581c87"/><rect x="152" y="136" width="8" height="8" fill="#581c87"/><rect x="160" y="136" width="8" height="8" fill="#581c87"/><rect x="168" y="136" width="8" height="8" fill="#0a0a0a"/><rect x="88" y="144" width="8" height="8" fill="#581c87"/><rect x="96" y="144" width="8" height="8" fill="#0a0a0a"/><rect x="104" y="144" width="8" height="8" fill="#0a0a0a"/><rect x="112" y="144" width="8" height="8" fill="#0a0a0a"/><rect x="120" y="144" width="8" height="8" fill="#0a0a0a"/><rect x="128" y="144" width="8" height="8" fill="#0a0a0a"/><rect x="136" y="144" width="8" height="8" fill="#0a0a0a"/><rect x="144" y="144" width="8" height="8" fill="#0a0a0a"/><rect x="152" y="144" width="8" height="8" fill="#0a0a0a"/><rect x="160" y="144" width="8" height="8" fill="#581c87"/><rect x="80" y="152" width="8" height="8" fill="#0a0a0a"/><rect x="88" y="152" width="8" height="8" fill="#581c87"/><rect x="112" y="152" width="8" height="8" fill="#0a0a0a"/><rect x="136" y="152" width="8" height="8" fill="#0a0a0a"/><rect x="160" y="152" width="8" height="8" fill="#581c87"/><rect x="168" y="152" width="8" height="8" fill="#0a0a0a"/><rect x="64" y="160" width="8" height="8" fill="#0a0a0a"/><rect x="72" y="160" width="8" height="8" fill="#581c87"/><rect x="104" y="160" width="8" height="8" fill="#581c87"/><rect x="144" y="160" width="8" height="8" fill="#581c87"/><rect x="176" y="160" width="8" height="8" fill="#581c87"/><rect x="184" y="160" width="8" height="8" fill="#0a0a0a"/><rect x="56" y="168" width="8" height="8" fill="#581c87"/><rect x="64" y="168" width="8" height="8" fill="#0a0a0a"/><rect x="96" y="168" width="8" height="8" fill="#0a0a0a"/><rect x="152" y="168" width="8" height="8" fill="#0a0a0a"/><rect x="184" y="168" width="8" height="8" fill="#0a0a0a"/><rect x="192" y="168" width="8" height="8" fill="#581c87"/><rect x="48" y="176" width="8" height="8" fill="#0a0a0a"/><rect x="56" y="176" width="8" height="8" fill="#581c87"/><rect x="88" y="176" width="8" height="8" fill="#581c87"/><rect x="160" y="176" width="8" height="8" fill="#581c87"/><rect x="192" y="176" width="8" height="8" fill="#581c87"/><rect x="200" y="176" width="8" height="8" fill="#0a0a0a"/><rect x="40" y="184" width="8" height="8" fill="#581c87"/><rect x="80" y="184" width="8" height="8" fill="#0a0a0a"/><rect x="168" y="184" width="8" height="8" fill="#0a0a0a"/><rect x="208" y="184" width="8" height="8" fill="#581c87"/><rect x="32" y="192" width="8" height="8" fill="#0a0a0a"/><rect x="72" y="192" width="8" height="8" fill="#581c87"/><rect x="176" y="192" width="8" height="8" fill="#581c87"/><rect x="216" y="192" width="8" height="8" fill="#0a0a0a"/><rect x="24" y="200" width="8" height="8" fill="#581c87"/><rect x="64" y="200" width="8" height="8" fill="#0a0a0a"/><rect x="184" y="200" width="8" height="8" fill="#0a0a0a"/><rect x="224" y="200" width="8" height="8" fill="#581c87"/><rect x="40" y="72" width="8" height="8" fill="#0a0a0a"/><rect x="32" y="80" width="8" height="8" fill="#581c87"/><rect x="24" y="88" width="8" height="8" fill="#0a0a0a"/><rect x="16" y="96" width="8" height="8" fill="#581c87"/><rect x="208" y="72" width="8" height="8" fill="#0a0a0a"/><rect x="216" y="80" width="8" height="8" fill="#581c87"/><rect x="224" y="88" width="8" height="8" fill="#0a0a0a"/><rect x="232" y="96" width="8" height="8" fill="#581c87"/><rect x="32" y="112" width="8" height="8" fill="#581c87"/><rect x="24" y="120" width="8" height="8" fill="#0a0a0a"/><rect x="16" y="128" width="8" height="8" fill="#581c87"/><rect x="216" y="112" width="8" height="8" fill="#581c87"/><rect x="224" y="120" width="8" height="8" fill="#0a0a0a"/><rect x="232" y="128" width="8" height="8" fill="#581c87"/></svg>