<svg xmlns="http://www.w3.org/2000/svg" width="256" height="256" viewBox="0 0 256 256" style="background:#0a0a0f"><rect x="112" y="64" width="8" height="8" fill="#ec4899"/><rect x="120" y="64" width="8" height="8" fill="#ec4899"/><rect x="128" y="64" width="8" height="8" fill="#ec4899"/><rect x="136" y="64" width="8" height="8" fill="#ec4899"/><rect x="104" y="72" width="8" height="8" fill="#ec4899"/><rect x="112" y="72" width="8" height="8" fill="#d946ef"/><rect x="120" y="72" width="8" height="8" fill="#d946ef"/><rect x="128" y="72" width="8" height="8" fill="#d946ef"/><rect x="136" y="72" width="8" height="8" fill="#d946ef"/><rect x="144" y="72" width="8" height="8" fill="#ec4899"/><rect x="104" y="80" width="8" height="8" fill="#d946ef"/><rect x="112" y="80" width="8" height="8" fill="#8b5cf6"/><rect x="120" y="80" width="8" height="8" fill="#d946ef"/><rect x="128" y="80" width="8" height="8" fill="#d946ef"/><rect x="136" y="80" width="8" height="8" fill="#8b5cf6"/><rect x="144" y="80" width="8" height="8" fill="#d946ef"/><rect x="104" y="88" width="8" height="8" fill="#d946ef"/><rect x="112" y="88" width="8" height="8" fill="#d946ef"/><rect x="120" y="88" width="8" height="8" fill="#d946ef"/><rect x="128" y="88" width="8" height="8" fill="#d946ef"/><rect x="136" y="88" width="8" height="8" fill="#d946ef"/><rect x="144" y="88" width="8" height="8" fill="#d946ef"/><rect x="104" y="96" width="8" height="8" fill="#d946ef"/><rect x="112" y="96" width="8" height="8" fill="#d946ef"/><rect x="120" y="96" width="8" height="8" fill="#ec4899"/><rect x="128" y="96" width="8" height="8" fill="#ec4899"/><rect x="136" y="96" width="8" height="8" fill="#d946ef"/><rect x="144" y="96" width="8" height="8" fill="#d946ef"/><rect x="112" y="104" width="8" height="8" fill="#d946ef"/><rect x="120" y="104" width="8" height="8" fill="#d946ef"/><rect x="128" y="104" width="8" height="8" fill="#d946ef"/><rect x="136" y="104" width="8" height="8" fill="#d946ef"/><rect x="72" y="56" width="8" height="8" fill="#ec4899"/><rect x="80" y="56" width="8" height="8" fill="#ec4899"/><rect x="88" y="56" width="8" height="8" fill="#ec4899"/><rect x="64" y="64" width="8" height="8" fill="#ec4899"/><rect x="72" y="64" width="8" height="8" fill="#be185d"/><rect x="80" y="64" width="8" height="8" fill="#be185d"/><rect x="88" y="64" width="8" height="8" fill="#be185d"/><rect x="96" y="64" width="8" height="8" fill="#ec4899"/><rect x="64" y="72" width="8" height="8" fill="#be185d"/><rect x="72" y="72" width="8" height="8" fill="#8b5cf6"/><rect x="80" y="72" width="8" height="8" fill="#be185d"/><rect x="88" y="72" width="8" height="8" fill="#8b5cf6"/><rect x="96" y="72" width="8" height="8" fill="#be185d"/><rect x="64" y="80" width="8" height="8" fill="#be185d"/><rect x="72" y="80" width="8" height="8" fill="#be185d"/><rect x="80" y="80" width="8" height="8" fill="#be185d"/><rect x="88" y="80" width="8" height="8" fill="#be185d"/><rect x="96" y="80" width="8" height="8" fill="#be185d"/><rect x="72" y="88" width="8" height="8" fill="#be185d"/><rect x="80" y="88" width="8" height="8" fill="#ec4899"/><rect x="88" y="88" width="8" height="8" fill="#be185d"/><rect x="160" y="56" width="8" height="8" fill="#ec4899"/><rect x="168" y="56" width="8" height="8" fill="#ec4899"/><rect x="176" y="56" width="8" height="8" fill="#ec4899"/><rect x="152" y="64" width="8" height="8" fill="#ec4899"/><rect x="160" y="64" width="8" height="8" fill="#be185d"/><rect x="168" y="64" width="8" height="8" fill="#be185d"/><rect x="176" y="64" width="8" height="8" fill="#be185d"/><rect x="184" y="64" width="8" height="8" fill="#ec4899"/><rect x="152" y="72" width="8" height="8" fill="#be185d"/><rect x="160" y="72" width="8" height="8" fill="#8b5cf6"/><rect x="168" y="72" width="8" height="8" fill="#be185d"/><rect x="176" y="72" width="8" height="8" fill="#8b5cf6"/><rect x="184" y="72" width="8" height="8" fill="#be185d"/><rect x="152" y="80" width="8" height="8" fill="#be185d"/><rect x="160" y="80" width="8" height="8" fill="#be185d"/><rect x="168" y="80" width="8" height="8" fill="#be185d"/><rect x="176" y="80" width="8" height="8" fill="#be185d"/><rect x="184" y="80" width="8" height="8" fill="#be185d"/><rect x="160" y="88" width="8" height="8" fill="#be185d"/><rect x="168" y="88" width="8" height="8" fill="#ec4899"/><rect x="176" y="88" width="8" height="8" fill="#be185d"/><rect x="32" y="80" width="8" height="8" fill="#8b5cf6"/><rect x="32" y="88" width="8" height="8" fill="#8b5cf6"/><rect x="32" y="96" width="8" height="8" fill="#8b5cf6"/><rect x="32" y="104" width="8" height="8" fill="#8b5cf6"/><rect x="40" y="72" width="8" height="8" fill="#8b5cf6"/><rect x="40" y="112" width="8" height="8" fill="#8b5cf6"/><rect x="48" y="64" width="8" height="8" fill="#d946ef"/><rect x="48" y="120" width="8" height="8" fill="#d946ef"/><rect x="24" y="88" width="8" height="8" fill="#8b5cf6"/><rect x="24" y="96" width="8" height="8" fill="#8b5cf6"/><rect x="216" y="80" width="8" height="8" fill="#8b5cf6"/><rect x="216" y="88" width="8" height="8" fill="#8b5cf6"/><rect x="216" y="96" width="8" height="8" fill="#8b5cf6"/><rect x="216" y="104" width="8" height="8" fill="#8b5cf6"/><rect x="208" y="72" width="8" height="8" fill="#8b5cf6"/><rect x="208" y="112" width="8" height="8" fill="#8b5cf6"/><rect x="200" y="64" width="8" height="8" fill="#d946ef"/><rect x="200" y="120" width="8" height="8" fill="#d946ef"/><rect x="224" y="88" width="8" height="8" fill="#8b5cf6"/><rect x="224" y="96" width="8" height="8" fill="#8b5cf6"/><rect x="112" y="112" width="8" height="8" fill="#ec4899"/><rect x="120" y="112" width="8" height="8" fill="#d946ef"/><rect x="128" y="112" width="8" height="8" fill="#d946ef"/><rect x="136" y="112" width="8" height="8" fill="#ec4899"/><rect x="104" y="120" width="8" height="8" fill="#ec4899"/><rect x="112" y="120" width="8" height="8" fill="#d946ef"/><rect x="120" y="120" width="8" height="8" fill="#ec4899"/><rect x="128" y="120" width="8" height="8" fill="#ec4899"/><rect x="136" y="120" width="8" height="8" fill="#d946ef"/><rect x="144" y="120" width="8" height="8" fill="#ec4899"/><rect x="96" y="128" width="8" height="8" fill="#d946ef"/><rect x="104" y="128" width="8" height="8" fill="#ec4899"/><rect x="112" y="128" width="8" height="8" fill="#d946ef"/><rect x="120" y="128" width="8" height="8" fill="#d946ef"/><rect x="128" y="128" width="8" height="8" fill="#d946ef"/><rect x="136" y="128" width="8" height="8" fill="#d946ef"/><rect x="144" y="128" width="8" height="8" fill="#ec4899"/><rect x="152" y="128" width="8" height="8" fill="#d946ef"/><rect x="88" y="136" width="8" height="8" fill="#8b5cf6"/><rect x="96" y="136" width="8" height="8" fill="#d946ef"/><rect x="104" y="136" width="8" height="8" fill="#ec4899"/><rect x="112" y="136" width="8" height="8" fill="#d946ef"/><rect x="120" y="136" width="8" height="8" fill="#ec4899"/><rect x="128" y="136" width="8" height="8" fill="#ec4899"/><rect x="136" y="136" width="8" height="8" fill="#d946ef"/><rect x="144" y="136" width="8" height="8" fill="#ec4899"/><rect x="152" y="136" width="8" height="8" fill="#d946ef"/><rect x="160" y="136" width="8" height="8" fill="#8b5cf6"/><rect x="80" y="144" width="8" height="8" fill="#8b5cf6"/><rect x="88" y="144" width="8" height="8" fill="#d946ef"/><rect x="96" y="144" width="8" height="8" fill="#ec4899"/><rect x="104" y="144" width="8" height="8" fill="#d946ef"/><rect x="112" y="144" width="8" height="8" fill="#ec4899"/><rect x="120" y="144" width="8" height="8" fill="#d946ef"/><rect x="128" y="144" width="8" height="8" fill="#d946ef"/><rect x="136" y="144" width="8" height="8" fill="#ec4899"/><rect x="144" y="144" width="8" height="8" fill="#d946ef"/><rect x="152" y="144" width="8" height="8" fill="#ec4899"/><rect x="160" y="144" width="8" height="8" fill="#d946ef"/><rect x="168" y="144" width="8" height="8" fill="#8b5cf6"/><rect x="88" y="152" width="8" height="8" fill="#8b5cf6"/><rect x="104" y="152" width="8" height="8" fill="#d946ef"/><rect x="120" y="152" width="8" height="8" fill="#ec4899"/><rect x="128" y="152" width="8" height="8" fill="#ec4899"/><rect x="144" y="152" width="8" height="8" fill="#d946ef"/><rect x="160" y="152" width="8" height="8" fill="#8b5cf6"/><rect x="80" y="160" width="8" height="8" fill="#8b5cf6"/><rect x="96" y="160" width="8" height="8" fill="#d946ef"/><rect x="112" y="160" width="8" height="8" fill="#ec4899"/><rect x="136" y="160" width="8" height="8" fill="#ec4899"/><rect x="152" y="160" width="8" height="8" fill="#d946ef"/><rect x="168" y="160" width="8" height="8" fill="#8b5cf6"/><rect x="88" y="168" width="8" height="8" fill="#8b5cf6"/><rect x="104" y="168" width="8" height="8" fill="#d946ef"/><rect x="120" y="168" width="8" height="8" fill="#ec4899"/><rect x="128" y="168" width="8" height="8" fill="#ec4899"/><rect x="144" y="168" width="8" height="8" fill="#d946ef"/><rect x="160" y="168" width="8" height="8" fill="#8b5cf6"/><rect x="96" y="176" width="8" height="8" fill="#8b5cf6"/><rect x="112" y="176" width="8" height="8" fill="#d946ef"/><rect x="136" y="176" width="8" height="8" fill="#d946ef"/><rect x="152" y="176" width="8" height="8" fill="#8b5cf6"/><rect x="104" y="184" width="8" height="8" fill="#8b5cf6"/><rect x="120" y="184" width="8" height="8" fill="#d946ef"/><rect x="128" y="184" width="8" height="8" fill="#d946ef"/><rect x="144" y="184" width="8" height="8" fill="#8b5cf6"/><rect x="112" y="192" width="8" height="8" fill="#8b5cf6"/><rect x="136" y="192" width="8" height="8" fill="#8b5cf6"/><rect x="40" y="32" width="8" height="8" fill="#ec4899"/><rect x="48" y="24" width="8" height="8" fill="#ec4899"/><rect x="48" y="32" width="8" height="8" fill="#ec4899"/><rect x="208" y="40" width="8" height="8" fill="#d946ef"/><rect x="216" y="32" width="8" height="8" fill="#d946ef"/><rect x="216" y="40" width="8" height="8" fill="#d946ef"/><rect x="24" y="144" width="8" height="8" fill="#8b5cf6"/><rect x="32" y="136" width="8" height="8" fill="#8b5cf6"/><rect x="224" y="136" width="8" height="8" fill="#8b5cf6"/><rect x="232" y="128" width="8" height="8" fill="#8b5cf6"/></svg>