<svg xmlns="http://www.w3.org/2000/svg" width="256" height="256" viewBox="0 0 256 256" style="background:#0a0a0f"><rect x="48" y="16" width="8" height="8" fill="#fef3c7"/><rect x="56" y="16" width="8" height="8" fill="#fef3c7"/><rect x="64" y="16" width="8" height="8" fill="#fef3c7"/><rect x="48" y="24" width="8" height="8" fill="#fef3c7"/><rect x="56" y="24" width="8" height="8" fill="#f59e0b"/><rect x="64" y="24" width="8" height="8" fill="#fef3c7"/><rect x="48" y="32" width="8" height="8" fill="#fef3c7"/><rect x="56" y="32" width="8" height="8" fill="#fef3c7"/><rect x="64" y="32" width="8" height="8" fill="#fef3c7"/><rect x="184" y="24" width="8" height="8" fill="#fef3c7"/><rect x="192" y="24" width="8" height="8" fill="#fef3c7"/><rect x="200" y="24" width="8" height="8" fill="#fef3c7"/><rect x="184" y="32" width="8" height="8" fill="#fef3c7"/><rect x="192" y="32" width="8" height="8" fill="#f59e0b"/><rect x="200" y="32" width="8" height="8" fill="#fef3c7"/><rect x="184" y="40" width="8" height="8" fill="#fef3c7"/><rect x="192" y="40" width="8" height="8" fill="#fef3c7"/><rect x="200" y="40" width="8" height="8" fill="#fef3c7"/><rect x="64" y="56" width="8" height="8" fill="#92400e"/><rect x="64" y="64" width="8" height="8" fill="#92400e"/><rect x="64" y="72" width="8" height="8" fill="#92400e"/><rect x="64" y="80" width="8" height="8" fill="#92400e"/><rect x="64" y="88" width="8" height="8" fill="#92400e"/><rect x="64" y="96" width="8" height="8" fill="#92400e"/><rect x="64" y="104" width="8" height="8" fill="#92400e"/><rect x="64" y="112" width="8" height="8" fill="#92400e"/><rect x="64" y="120" width="8" height="8" fill="#92400e"/><rect x="64" y="128" width="8" height="8" fill="#92400e"/><rect x="64" y="136" width="8" height="8" fill="#92400e"/><rect x="64" y="144" width="8" height="8" fill="#92400e"/><rect x="64" y="152" width="8" height="8" fill="#92400e"/><rect x="64" y="160" width="8" height="8" fill="#92400e"/><rect x="64" y="168" width="8" height="8" fill="#92400e"/><rect x="64" y="176" width="8" height="8" fill="#92400e"/><rect x="72" y="56" width="8" height="8" fill="#92400e"/><rect x="80" y="56" width="8" height="8" fill="#92400e"/><rect x="88" y="56" width="8" height="8" fill="#92400e"/><rect x="96" y="56" width="8" height="8" fill="#92400e"/><rect x="104" y="56" width="8" height="8" fill="#92400e"/><rect x="112" y="56" width="8" height="8" fill="#92400e"/><rect x="120" y="56" width="8" height="8" fill="#92400e"/><rect x="128" y="56" width="8" height="8" fill="#92400e"/><rect x="136" y="56" width="8" height="8" fill="#92400e"/><rect x="144" y="56" width="8" height="8" fill="#92400e"/><rect x="152" y="56" width="8" height="8" fill="#92400e"/><rect x="160" y="56" width="8" height="8" fill="#92400e"/><rect x="168" y="56" width="8" height="8" fill="#92400e"/><rect x="176" y="56" width="8" height="8" fill="#92400e"/><rect x="184" y="56" width="8" height="8" fill="#92400e"/><rect x="72" y="176" width="8" height="8" fill="#92400e"/><rect x="80" y="176" width="8" height="8" fill="#92400e"/><rect x="88" y="176" width="8" height="8" fill="#92400e"/><rect x="96" y="176" width="8" height="8" fill="#92400e"/><rect x="104" y="176" width="8" height="8" fill="#92400e"/><rect x="112" y="176" width="8" height="8" fill="#92400e"/><rect x="120" y="176" width="8" height="8" fill="#92400e"/><rect x="128" y="176" width="8" height="8" fill="#92400e"/><rect x="136" y="176" width="8" height="8" fill="#92400e"/><rect x="144" y="176" width="8" height="8" fill="#92400e"/><rect x="152" y="176" width="8" height="8" fill="#92400e"/><rect x="160" y="176" width="8" height="8" fill="#92400e"/><rect x="168" y="176" width="8" height="8" fill="#92400e"/><rect x="176" y="176" width="8" height="8" fill="#92400e"/><rect x="184" y="176" width="8" height="8" fill="#92400e"/><rect x="184" y="64" width="8" height="8" fill="#92400e"/><rect x="184" y="72" width="8" height="8" fill="#92400e"/><rect x="184" y="80" width="8" height="8" fill="#92400e"/><rect x="184" y="88" width="8" height="8" fill="#92400e"/><rect x="184" y="96" width="8" height="8" fill="#92400e"/><rect x="184" y="104" width="8" height="8" fill="#92400e"/><rect x="184" y="112" width="8" height="8" fill="#92400e"/><rect x="184" y="120" width="8" height="8" fill="#92400e"/><rect x="184" y="128" width="8" height="8" fill="#92400e"/><rect x="184" y="136" width="8" height="8" fill="#92400e"/><rect x="184" y="144" width="8" height="8" fill="#92400e"/><rect x="184" y="152" width="8" height="8" fill="#92400e"/><rect x="184" y="160" width="8" height="8" fill="#92400e"/><rect x="184" y="168" width="8" height="8" fill="#92400e"/><rect x="72" y="64" width="8" height="8" fill="#f59e0b"/><rect x="80" y="64" width="8" height="8" fill="#f59e0b"/><rect x="72" y="72" width="8" height="8" fill="#f59e0b"/><rect x="168" y="64" width="8" height="8" fill="#f59e0b"/><rect x="176" y="64" width="8" height="8" fill="#f59e0b"/><rect x="176" y="72" width="8" height="8" fill="#f59e0b"/><rect x="72" y="160" width="8" height="8" fill="#f59e0b"/><rect x="72" y="168" width="8" height="8" fill="#f59e0b"/><rect x="80" y="168" width="8" height="8" fill="#f59e0b"/><rect x="176" y="160" width="8" height="8" fill="#f59e0b"/><rect x="168" y="168" width="8" height="8" fill="#f59e0b"/><rect x="176" y="168" width="8" height="8" fill="#f59e0b"/><rect x="112" y="96" width="8" height="8" fill="#f59e0b"/><rect x="120" y="96" width="8" height="8" fill="#f59e0b"/><rect x="128" y="96" width="8" height="8" fill="#f59e0b"/><rect x="136" y="96" width="8" height="8" fill="#f59e0b"/><rect x="104" y="104" width="8" height="8" fill="#f59e0b"/><rect x="112" y="104" width="8" height="8" fill="#fef3c7"/><rect x="120" y="104" width="8" height="8" fill="#fef3c7"/><rect x="128" y="104" width="8" height="8" fill="#fef3c7"/><rect x="136" y="104" width="8" height="8" fill="#fef3c7"/><rect x="144" y="104" width="8" height="8" fill="#f59e0b"/><rect x="96" y="112" width="8" height="8" fill="#f59e0b"/><rect x="104" y="112" width="8" height="8" fill="#fef3c7"/><rect x="112" y="112" width="8" height="8" fill="#fef3c7"/><rect x="120" y="112" width="8" height="8" fill="#92400e"/><rect x="128" y="112" width="8" height="8" fill="#92400e"/><rect x="136" y="112" width="8" height="8" fill="#fef3c7"/><rect x="144" y="112" width="8" height="8" fill="#fef3c7"/><rect x="152" y="112" width="8" height="8" fill="#f59e0b"/><rect x="96" y="120" width="8" height="8" fill="#f59e0b"/><rect x="104" y="120" width="8" height="8" fill="#fef3c7"/><rect x="112" y="120" width="8" height="8" fill="#fef3c7"/><rect x="120" y="120" width="8" height="8" fill="#0a0a0a"/><rect x="128" y="120" width="8" height="8" fill="#0a0a0a"/><rect x="136" y="120" width="8" height="8" fill="#fef3c7"/><rect x="144" y="120" width="8" height="8" fill="#fef3c7"/><rect x="152" y="120" width="8" height="8" fill="#f59e0b"/><rect x="96" y="128" width="8" height="8" fill="#f59e0b"/><rect x="104" y="128" width="8" height="8" fill="#fef3c7"/><rect x="112" y="128" width="8" height="8" fill="#fef3c7"/><rect x="120" y="128" width="8" height="8" fill="#92400e"/><rect x="128" y="128" width="8" height="8" fill="#92400e"/><rect x="136" y="128" width="8" height="8" fill="#fef3c7"/><rect x="144" y="128" width="8" height="8" fill="#fef3c7"/><rect x="152" y="128" width="8" height="8" fill="#f59e0b"/><rect x="104" y="136" width="8" height="8" fill="#f59e0b"/><rect x="112" y="136" width="8" height="8" fill="#fef3c7"/><rect x="120" y="136" width="8" height="8" fill="#fef3c7"/><rect x="128" y="136" width="8" height="8" fill="#fef3c7"/><rect x="136" y="136" width="8" height="8" fill="#fef3c7"/><rect x="144" y="136" width="8" height="8" fill="#f59e0b"/><rect x="112" y="144" width="8" height="8" fill="#f59e0b"/><rect x="120" y="144" width="8" height="8" fill="#f59e0b"/><rect x="128" y="144" width="8" height="8" fill="#f59e0b"/><rect x="136" y="144" width="8" height="8" fill="#f59e0b"/><rect x="80" y="88" width="8" height="8" fill="#f59e0b"/><rect x="88" y="88" width="8" height="8" fill="#f59e0b"/><rect x="80" y="96" width="8" height="8" fill="#f59e0b"/><rect x="160" y="88" width="8" height="8" fill="#f59e0b"/><rect x="168" y="88" width="8" height="8" fill="#f59e0b"/><rect x="168" y="96" width="8" height="8" fill="#f59e0b"/><rect x="80" y="144" width="8" height="8" fill="#f59e0b"/><rect x="88" y="144" width="8" height="8" fill="#f59e0b"/><rect x="88" y="152" width="8" height="8" fill="#f59e0b"/><rect x="160" y="144" width="8" height="8" fill="#f59e0b"/><rect x="168" y="144" width="8" height="8" fill="#f59e0b"/><rect x="160" y="152" width="8" height="8" fill="#f59e0b"/><rect x="40" y="80" width="8" height="8" fill="#f59e0b"/><rect x="32" y="88" width="8" height="8" fill="#f59e0b"/><rect x="208" y="72" width="8" height="8" fill="#f59e0b"/><rect x="216" y="80" width="8" height="8" fill="#f59e0b"/><rect x="24" y="128" width="8" height="8" fill="#f59e0b"/><rect x="224" y="120" width="8" height="8" fill="#f59e0b"/><rect x="48" y="192" width="8" height="8" fill="#f59e0b"/><rect x="200" y="192" width="8" height="8" fill="#f59e0b"/><rect x="32" y="56" width="8" height="8" fill="#f59e0b"/><rect x="216" y="160" width="8" height="8" fill="#f59e0b"/><rect x="72" y="184" width="8" height="8" fill="#fef3c7"/><rect x="80" y="184" width="8" height="8" fill="#fef3c7"/><rect x="88" y="184" width="8" height="8" fill="#fef3c7"/><rect x="96" y="184" width="8" height="8" fill="#fef3c7"/><rect x="104" y="184" width="8" height="8" fill="#fef3c7"/><rect x="112" y="184" width="8" height="8" fill="#fef3c7"/><rect x="120" y="184" width="8" height="8" fill="#fef3c7"/><rect x="128" y="184" width="8" height="8" fill="#fef3c7"/><rect x="136" y="184" width="8" height="8" fill="#fef3c7"/><rect x="144" y="184" width="8" height="8" fill="#fef3c7"/><rect x="152" y="184" width="8" height="8" fill="#fef3c7"/><rect x="160" y="184" width="8" height="8" fill="#fef3c7"/><rect x="168" y="184" width="8" height="8" fill="#fef3c7"/><rect x="176" y="184" width="8" height="8" fill="#fef3c7"/><rect x="72" y="192" width="8" height="8" fill="#fef3c7"/><rect x="80" y="192" width="8" height="8" fill="#e8d5a3"/><rect x="88" y="192" width="8" height="8" fill="#fef3c7"/><rect x="96" y="192" width="8" height="8" fill="#e8d5a3"/><rect x="104" y="192" width="8" height="8" fill="#fef3c7"/><rect x="112" y="192" width="8" height="8" fill="#e8d5a3"/><rect x="120" y="192" width="8" height="8" fill="#fef3c7"/><rect x="128" y="192" width="8" height="8" fill="#e8d5a3"/><rect x="136" y="192" width="8" height="8" fill="#fef3c7"/><rect x="144" y="192" width="8" height="8" fill="#e8d5a3"/><rect x="152" y="192" width="8" height="8" fill="#fef3c7"/><rect x="160" y="192" width="8" height="8" fill="#e8d5a3"/><rect x="168" y="192" width="8" height="8" fill="#fef3c7"/><rect x="176" y="192" width="8" height="8" fill="#e8d5a3"/></svg>