<svg xmlns="http://www.w3.org/2000/svg" width="256" height="256" viewBox="0 0 256 256" style="background:#0a0a0f"><rect x="112" y="16" width="8" height="8" fill="#991b1b"/><rect x="120" y="16" width="8" height="8" fill="#991b1b"/><rect x="128" y="16" width="8" height="8" fill="#991b1b"/><rect x="96" y="24" width="8" height="8" fill="#991b1b"/><rect x="104" y="24" width="8" height="8" fill="#eab308"/><rect x="112" y="24" width="8" height="8" fill="#eab308"/><rect x="120" y="24" width="8" height="8" fill="#991b1b"/><rect x="128" y="24" width="8" height="8" fill="#eab308"/><rect x="136" y="24" width="8" height="8" fill="#eab308"/><rect x="152" y="24" width="8" height="8" fill="#991b1b"/><rect x="80" y="8" width="8" height="8" fill="#cd7f32"/><rect x="88" y="16" width="8" height="8" fill="#cd7f32"/><rect x="96" y="16" width="8" height="8" fill="#cd7f32"/><rect x="160" y="8" width="8" height="8" fill="#cd7f32"/><rect x="152" y="16" width="8" height="8" fill="#cd7f32"/><rect x="144" y="16" width="8" height="8" fill="#cd7f32"/><rect x="88" y="32" width="8" height="8" fill="#991b1b"/><rect x="96" y="32" width="8" height="8" fill="#eab308"/><rect x="104" y="32" width="8" height="8" fill="#eab308"/><rect x="112" y="32" width="8" height="8" fill="#eab308"/><rect x="120" y="32" width="8" height="8" fill="#eab308"/><rect x="128" y="32" width="8" height="8" fill="#eab308"/><rect x="136" y="32" width="8" height="8" fill="#eab308"/><rect x="144" y="32" width="8" height="8" fill="#eab308"/><rect x="152" y="32" width="8" height="8" fill="#991b1b"/><rect x="88" y="40" width="8" height="8" fill="#eab308"/><rect x="96" y="40" width="8" height="8" fill="#eab308"/><rect x="104" y="40" width="8" height="8" fill="#ef4444"/><rect x="112" y="40" width="8" height="8" fill="#eab308"/><rect x="120" y="40" width="8" height="8" fill="#eab308"/><rect x="128" y="40" width="8" height="8" fill="#eab308"/><rect x="136" y="40" width="8" height="8" fill="#ef4444"/><rect x="144" y="40" width="8" height="8" fill="#eab308"/><rect x="152" y="40" width="8" height="8" fill="#eab308"/><rect x="88" y="48" width="8" height="8" fill="#eab308"/><rect x="96" y="48" width="8" height="8" fill="#cd7f32"/><rect x="104" y="48" width="8" height="8" fill="#eab308"/><rect x="112" y="48" width="8" height="8" fill="#eab308"/><rect x="120" y="48" width="8" height="8" fill="#eab308"/><rect x="128" y="48" width="8" height="8" fill="#eab308"/><rect x="136" y="48" width="8" height="8" fill="#eab308"/><rect x="144" y="48" width="8" height="8" fill="#cd7f32"/><rect x="152" y="48" width="8" height="8" fill="#eab308"/><rect x="96" y="56" width="8" height="8" fill="#eab308"/><rect x="104" y="56" width="8" height="8" fill="#991b1b"/><rect x="112" y="56" width="8" height="8" fill="#eab308"/><rect x="120" y="56" width="8" height="8" fill="#eab308"/><rect x="128" y="56" width="8" height="8" fill="#eab308"/><rect x="136" y="56" width="8" height="8" fill="#991b1b"/><rect x="144" y="56" width="8" height="8" fill="#eab308"/><rect x="104" y="64" width="8" height="8" fill="#fef3c7"/><rect x="112" y="64" width="8" height="8" fill="#991b1b"/><rect x="120" y="64" width="8" height="8" fill="#991b1b"/><rect x="128" y="64" width="8" height="8" fill="#991b1b"/><rect x="136" y="64" width="8" height="8" fill="#fef3c7"/><rect x="104" y="72" width="8" height="8" fill="#eab308"/><rect x="112" y="72" width="8" height="8" fill="#cd7f32"/><rect x="120" y="72" width="8" height="8" fill="#eab308"/><rect x="128" y="72" width="8" height="8" fill="#cd7f32"/><rect x="136" y="72" width="8" height="8" fill="#eab308"/><rect x="88" y="80" width="8" height="8" fill="#eab308"/><rect x="96" y="80" width="8" height="8" fill="#cd7f32"/><rect x="104" y="80" width="8" height="8" fill="#eab308"/><rect x="112" y="80" width="8" height="8" fill="#cd7f32"/><rect x="120" y="80" width="8" height="8" fill="#eab308"/><rect x="128" y="80" width="8" height="8" fill="#cd7f32"/><rect x="136" y="80" width="8" height="8" fill="#eab308"/><rect x="144" y="80" width="8" height="8" fill="#cd7f32"/><rect x="152" y="80" width="8" height="8" fill="#eab308"/><rect x="80" y="88" width="8" height="8" fill="#cd7f32"/><rect x="88" y="88" width="8" height="8" fill="#eab308"/><rect x="96" y="88" width="8" height="8" fill="#eab308"/><rect x="104" y="88" width="8" height="8" fill="#cd7f32"/><rect x="112" y="88" width="8" height="8" fill="#eab308"/><rect x="120" y="88" width="8" height="8" fill="#cd7f32"/><rect x="128" y="88" width="8" height="8" fill="#eab308"/><rect x="136" y="88" width="8" height="8" fill="#cd7f32"/><rect x="144" y="88" width="8" height="8" fill="#eab308"/><rect x="152" y="88" width="8" height="8" fill="#eab308"/><rect x="160" y="88" width="8" height="8" fill="#cd7f32"/><rect x="72" y="96" width="8" height="8" fill="#eab308"/><rect x="80" y="96" width="8" height="8" fill="#eab308"/><rect x="88" y="96" width="8" height="8" fill="#cd7f32"/><rect x="96" y="96" width="8" height="8" fill="#eab308"/><rect x="104" y="96" width="8" height="8" fill="#eab308"/><rect x="112" y="96" width="8" height="8" fill="#cd7f32"/><rect x="120" y="96" width="8" height="8" fill="#eab308"/><rect x="128" y="96" width="8" height="8" fill="#eab308"/><rect x="136" y="96" width="8" height="8" fill="#eab308"/><rect x="144" y="96" width="8" height="8" fill="#cd7f32"/><rect x="152" y="96" width="8" height="8" fill="#eab308"/><rect x="160" y="96" width="8" height="8" fill="#eab308"/><rect x="168" y="96" width="8" height="8" fill="#eab308"/><rect x="160" y="104" width="8" height="8" fill="#cd7f32"/><rect x="168" y="104" width="8" height="8" fill="#eab308"/><rect x="176" y="104" width="8" height="8" fill="#cd7f32"/><rect x="184" y="104" width="8" height="8" fill="#eab308"/><rect x="168" y="112" width="8" height="8" fill="#eab308"/><rect x="176" y="112" width="8" height="8" fill="#cd7f32"/><rect x="184" y="112" width="8" height="8" fill="#eab308"/><rect x="192" y="112" width="8" height="8" fill="#cd7f32"/><rect x="176" y="120" width="8" height="8" fill="#cd7f32"/><rect x="184" y="120" width="8" height="8" fill="#eab308"/><rect x="192" y="120" width="8" height="8" fill="#eab308"/><rect x="64" y="104" width="8" height="8" fill="#eab308"/><rect x="72" y="104" width="8" height="8" fill="#cd7f32"/><rect x="80" y="104" width="8" height="8" fill="#eab308"/><rect x="56" y="112" width="8" height="8" fill="#cd7f32"/><rect x="64" y="112" width="8" height="8" fill="#eab308"/><rect x="72" y="112" width="8" height="8" fill="#cd7f32"/><rect x="56" y="120" width="8" height="8" fill="#eab308"/><rect x="64" y="120" width="8" height="8" fill="#cd7f32"/><rect x="72" y="120" width="8" height="8" fill="#eab308"/><rect x="72" y="128" width="8" height="8" fill="#cd7f32"/><rect x="80" y="128" width="8" height="8" fill="#eab308"/><rect x="88" y="128" width="8" height="8" fill="#cd7f32"/><rect x="96" y="128" width="8" height="8" fill="#eab308"/><rect x="104" y="128" width="8" height="8" fill="#cd7f32"/><rect x="112" y="128" width="8" height="8" fill="#eab308"/><rect x="120" y="128" width="8" height="8" fill="#cd7f32"/><rect x="128" y="128" width="8" height="8" fill="#eab308"/><rect x="136" y="128" width="8" height="8" fill="#cd7f32"/><rect x="144" y="128" width="8" height="8" fill="#eab308"/><rect x="152" y="128" width="8" height="8" fill="#cd7f32"/><rect x="160" y="128" width="8" height="8" fill="#eab308"/><rect x="168" y="128" width="8" height="8" fill="#cd7f32"/><rect x="176" y="128" width="8" height="8" fill="#eab308"/><rect x="80" y="136" width="8" height="8" fill="#eab308"/><rect x="88" y="136" width="8" height="8" fill="#cd7f32"/><rect x="96" y="136" width="8" height="8" fill="#eab308"/><rect x="104" y="136" width="8" height="8" fill="#cd7f32"/><rect x="112" y="136" width="8" height="8" fill="#eab308"/><rect x="120" y="136" width="8" height="8" fill="#cd7f32"/><rect x="128" y="136" width="8" height="8" fill="#eab308"/><rect x="136" y="136" width="8" height="8" fill="#cd7f32"/><rect x="144" y="136" width="8" height="8" fill="#eab308"/><rect x="152" y="136" width="8" height="8" fill="#cd7f32"/><rect x="160" y="136" width="8" height="8" fill="#eab308"/><rect x="168" y="136" width="8" height="8" fill="#cd7f32"/><rect x="160" y="144" width="8" height="8" fill="#eab308"/><rect x="168" y="144" width="8" height="8" fill="#cd7f32"/><rect x="176" y="144" width="8" height="8" fill="#eab308"/><rect x="176" y="152" width="8" height="8" fill="#cd7f32"/><rect x="184" y="152" width="8" height="8" fill="#eab308"/><rect x="192" y="152" width="8" height="8" fill="#cd7f32"/><rect x="192" y="160" width="8" height="8" fill="#eab308"/><rect x="200" y="160" width="8" height="8" fill="#cd7f32"/><rect x="200" y="168" width="8" height="8" fill="#eab308"/><rect x="208" y="168" width="8" height="8" fill="#991b1b"/><rect x="64" y="152" width="8" height="8" fill="#eab308"/><rect x="72" y="152" width="8" height="8" fill="#fbbf24"/><rect x="80" y="152" width="8" height="8" fill="#eab308"/><rect x="88" y="152" width="8" height="8" fill="#fbbf24"/><rect x="96" y="152" width="8" height="8" fill="#eab308"/><rect x="104" y="152" width="8" height="8" fill="#fbbf24"/><rect x="112" y="152" width="8" height="8" fill="#eab308"/><rect x="120" y="152" width="8" height="8" fill="#fbbf24"/><rect x="128" y="152" width="8" height="8" fill="#eab308"/><rect x="136" y="152" width="8" height="8" fill="#fbbf24"/><rect x="144" y="152" width="8" height="8" fill="#eab308"/><rect x="152" y="152" width="8" height="8" fill="#fbbf24"/><rect x="56" y="160" width="8" height="8" fill="#fbbf24"/><rect x="64" y="160" width="8" height="8" fill="#eab308"/><rect x="72" y="160" width="8" height="8" fill="#fbbf24"/><rect x="80" y="160" width="8" height="8" fill="#eab308"/><rect x="88" y="160" width="8" height="8" fill="#fbbf24"/><rect x="96" y="160" width="8" height="8" fill="#eab308"/><rect x="104" y="160" width="8" height="8" fill="#fbbf24"/><rect x="112" y="160" width="8" height="8" fill="#eab308"/><rect x="120" y="160" width="8" height="8" fill="#fbbf24"/><rect x="128" y="160" width="8" height="8" fill="#eab308"/><rect x="136" y="160" width="8" height="8" fill="#fbbf24"/><rect x="144" y="160" width="8" height="8" fill="#eab308"/><rect x="152" y="160" width="8" height="8" fill="#fbbf24"/><rect x="160" y="160" width="8" height="8" fill="#eab308"/><rect x="48" y="168" width="8" height="8" fill="#eab308"/><rect x="56" y="168" width="8" height="8" fill="#fbbf24"/><rect x="64" y="168" width="8" height="8" fill="#eab308"/><rect x="72" y="168" width="8" height="8" fill="#fbbf24"/><rect x="80" y="168" width="8" height="8" fill="#eab308"/><rect x="88" y="168" width="8" height="8" fill="#fbbf24"/><rect x="96" y="168" width="8" height="8" fill="#eab308"/><rect x="104" y="168" width="8" height="8" fill="#fbbf24"/><rect x="112" y="168" width="8" height="8" fill="#eab308"/><rect x="120" y="168" width="8" height="8" fill="#fbbf24"/><rect x="128" y="168" width="8" height="8" fill="#eab308"/><rect x="136" y="168" width="8" height="8" fill="#fbbf24"/><rect x="144" y="168" width="8" height="8" fill="#eab308"/><rect x="152" y="168" width="8" height="8" fill="#fbbf24"/><rect x="160" y="168" width="8" height="8" fill="#eab308"/><rect x="168" y="168" width="8" height="8" fill="#fbbf24"/><rect x="40" y="176" width="8" height="8" fill="#fbbf24"/><rect x="48" y="176" width="8" height="8" fill="#eab308"/><rect x="56" y="176" width="8" height="8" fill="#fbbf24"/><rect x="64" y="176" width="8" height="8" fill="#eab308"/><rect x="72" y="176" width="8" height="8" fill="#fbbf24"/><rect x="80" y="176" width="8" height="8" fill="#eab308"/><rect x="88" y="176" width="8" height="8" fill="#fbbf24"/><rect x="96" y="176" width="8" height="8" fill="#eab308"/><rect x="104" y="176" width="8" height="8" fill="#fbbf24"/><rect x="112" y="176" width="8" height="8" fill="#eab308"/><rect x="120" y="176" width="8" height="8" fill="#fbbf24"/><rect x="128" y="176" width="8" height="8" fill="#eab308"/><rect x="136" y="176" width="8" height="8" fill="#fbbf24"/><rect x="144" y="176" width="8" height="8" fill="#eab308"/><rect x="152" y="176" width="8" height="8" fill="#fbbf24"/><rect x="160" y="176" width="8" height="8" fill="#eab308"/><rect x="168" y="176" width="8" height="8" fill="#fbbf24"/><rect x="176" y="176" width="8" height="8" fill="#eab308"/><rect x="40" y="184" width="8" height="8" fill="#cd7f32"/><rect x="48" y="184" width="8" height="8" fill="#fbbf24"/><rect x="56" y="184" width="8" height="8" fill="#cd7f32"/><rect x="64" y="184" width="8" height="8" fill="#fbbf24"/><rect x="72" y="184" width="8" height="8" fill="#cd7f32"/><rect x="80" y="184" width="8" height="8" fill="#fbbf24"/><rect x="88" y="184" width="8" height="8" fill="#cd7f32"/><rect x="96" y="184" width="8" height="8" fill="#fbbf24"/><rect x="104" y="184" width="8" height="8" fill="#cd7f32"/><rect x="112" y="184" width="8" height="8" fill="#fbbf24"/><rect x="120" y="184" width="8" height="8" fill="#cd7f32"/><rect x="128" y="184" width="8" height="8" fill="#fbbf24"/><rect x="136" y="184" width="8" height="8" fill="#cd7f32"/><rect x="144" y="184" width="8" height="8" fill="#fbbf24"/><rect x="152" y="184" width="8" height="8" fill="#cd7f32"/><rect x="160" y="184" width="8" height="8" fill="#fbbf24"/><rect x="168" y="184" width="8" height="8" fill="#cd7f32"/><rect x="176" y="184" width="8" height="8" fill="#fbbf24"/><rect x="48" y="80" width="8" height="8" fill="#991b1b"/><rect x="40" y="72" width="8" height="8" fill="#991b1b"/><rect x="32" y="64" width="8" height="8" fill="#991b1b"/><rect x="24" y="56" width="8" height="8" fill="#991b1b"/><rect x="192" y="80" width="8" height="8" fill="#991b1b"/><rect x="200" y="72" width="8" height="8" fill="#991b1b"/><rect x="208" y="64" width="8" height="8" fill="#991b1b"/><rect x="216" y="56" width="8" height="8" fill="#991b1b"/><rect x="40" y="80" width="8" height="8" fill="#991b1b"/><rect x="48" y="88" width="8" height="8" fill="#991b1b"/><rect x="200" y="80" width="8" height="8" fill="#991b1b"/><rect x="192" y="88" width="8" height="8" fill="#991b1b"/></svg>